<?xml version="1.0" encoding="UTF-8"?>
<svg id="Layer_2" data-name="Layer 2" xmlns="http://www.w3.org/2000/svg" viewBox="0 0 164.3 28.9">
  <defs>
    <style>
      .cls-1 {
        fill: #262626;
      }
    </style>
  </defs>
  <g id="Layer_1-2" data-name="Layer 1">
    <g>
      <path class="cls-1" d="m0,17.8c0-.2.1-.4.1-.6.1-1.7.4-3.4,1-4.9.8-2.3,2.1-4.5,3.8-6.2,1.8-1.9,4.1-3.2,6.6-3.9,1.1-.3,2.2-.5,3.4-.6.8-.1,1.7-.1,2.6,0,1.9.1,3.7.5,5.4,1.2.3.2.7.4,1.1.6s.6.7.6,1.1c0,.9-.1,1.8-.5,2.6-.1.2-.2.4-.4.6,0,.3-.3.4-.5.3h0c-.2-.1-.4-.2-.6-.3-1.1-.7-2.3-1.2-3.6-1.6-.6-.1-1.2-.2-1.8-.3h-1.9c-1.4.1-2.8.5-4,1.2-1.4.9-2.6,2-3.5,3.4-1.1,1.6-1.8,3.5-2.1,5.4-.2.7-.2,1.5-.2,2.2,0,1,.2,1.9.6,2.8.6,1.3,1.7,2.3,3,2.8.9.3,1.9.4,2.9.4,1.2,0,2.4-.2,3.5-.7.2-.1.3-.2.3-.4.4-1.9.8-3.7,1.1-5.6v-.2h-4.9c-.3,0-.5-.1-.5-.4h0v-.7c.1-.6.2-1.2.4-1.8.1-.3.2-.6.4-.8.1-.2.3-.3.6-.3h9.1c.4.1.7.5.8.9v.7c-.6,2.8-1.1,5.5-1.7,8.2-.2.8-.3,1.6-.5,2.4,0,.2-.1.3-.1.5-.1.4-.4.8-.9,1-.7.3-1.4.6-2.1.8-1.3.4-2.7.7-4.1.8-1.3.1-2.7.1-4,0-1.4-.1-2.7-.5-3.9-1-2.6-1-4.4-3.3-5-6-.1-.6-.2-1.2-.3-1.8,0-.2-.1-.3-.1-.5v-1.3h-.1Z"/>
      <path class="cls-1" d="m72.9,28.9l-.7-.1c-1.4-.2-2.8-.6-4-1.2-.3-.2-.5-.3-.8-.5-.4-.3-.7-.8-.6-1.3.1-.8.2-1.6.4-2.3.1-.2.2-.4.2-.7.1-.1.1-.2.2-.3.1-.2.4-.3.6-.2h0c.2.1.4.2.6.3.7.5,1.5.9,2.4,1.3,1,.4,2.1.6,3.2.5.8,0,1.6-.2,2.2-.6,1.2-.6,2-1.7,2.1-3v-.9c-.1-.5-.2-1-.6-1.4-.2-.3-.5-.6-.8-.8-.4-.3-.9-.7-1.3-.9-1-.7-2-1.4-3-2.2-1.1-.9-1.9-2.2-2.3-3.6-.2-.8-.3-1.6-.3-2.4,0-.9.2-1.9.5-2.8.7-2.1,2.3-3.8,4.2-4.7,1.2-.6,2.4-.9,3.7-1l.9-.1h1.1l.7.1c1.2.1,2.3.4,3.3.9.3.1.5.3.8.5.4.2.6.7.6,1.1,0,.9-.2,1.8-.5,2.7-.1.2-.2.4-.3.6-.1.2-.3.3-.5.2h0c-.2-.1-.4-.1-.5-.3-.8-.5-1.6-.8-2.4-1.1-1.1-.3-2.2-.4-3.3-.1-1.5.4-2.5,1.5-2.7,2.9v.7c0,.5.2,1,.4,1.4.3.4.6.7,1,1,.5.3.9.7,1.4,1,1.1.6,2.1,1.3,3.1,2.1,1.1.9,2,2.1,2.4,3.4.2.8.3,1.6.3,2.4-.1,1-.3,1.9-.6,2.8-.8,2.3-2.4,4.1-4.5,5.2-1.2.6-2.5,1-3.8,1.2l-.8.1h-.2l-1.8.1Z"/>
      <path class="cls-1" d="m92.6,12.2l.1-.2c1.2-1.7,3-3,5-3.6,1-.3,2.1-.3,3.2-.1,1.5.3,2.7,1.5,3,3,.1.2.1.5.1.7v.2l.2-.2c1.2-1.7,2.9-2.9,4.8-3.6.8-.3,1.7-.4,2.5-.3.4,0,.9.1,1.3.2,1.5.4,2.6,1.5,2.9,3,.2.9.3,1.8.2,2.7-.1,1.1-.3,2.2-.6,3.3-.4,2-.8,4-1.2,6.1-.2,1.2-.5,2.5-.7,3.7,0,.3-.2.5-.5.6s-.6.2-.9.2c-.9.1-1.7.1-2.6,0-.3,0-.5-.1-.7-.2s-.4-.3-.3-.5v-.1l1.4-7c.2-1.3.5-2.5.8-3.8.1-.6.2-1.3.2-1.9,0-.3-.1-.7-.2-1-.2-.6-.7-1-1.4-1-.5,0-1,.1-1.5.4-.6.4-1.2.8-1.7,1.4-1.3,1.4-2.1,3.1-2.5,4.9l-1.1,5.4c-.2.9-.4,1.8-.5,2.6,0,.3-.2.5-.5.6s-.6.2-.9.2c-.9.1-1.8.1-2.7,0-.2,0-.4-.1-.7-.1-.3-.1-.4-.3-.4-.6v-.1c.1-.7.3-1.5.4-2.2l1.1-5.6c.2-1.1.4-2.2.7-3.2.1-.7.2-1.3.1-2,0-.2-.1-.4-.2-.6-.2-.6-.7-1-1.3-1-.5,0-1,.1-1.4.3-.7.3-1.3.8-1.8,1.3-1.3,1.4-2.2,3.1-2.6,5l-.9,5.9c-.1.7-.3,1.5-.4,2.2,0,.3-.3.6-.6.7-.3.1-.5.1-.8.2-1,.1-2,.1-2.9,0-.2,0-.4-.1-.5-.2-.2-.1-.3-.3-.3-.5h0c.2-.8.3-1.6.5-2.5.4-1.9.8-3.7,1.1-5.6.5-2.6,1-5.1,1.6-7.7.1-.7.3-1.4.4-2.2,0-.3.3-.5.5-.6.3-.1.5-.1.8-.2.7-.1,1.4-.1,2.2,0,.2,0,.3.1.5.1.2.1.4.3.3.5h0c-.2.9-.4,1.9-.5,2.8q-.1.1-.1.2h0"/>
      <path class="cls-1" d="m122.2,20.7c0,.5,0,.9.1,1.4,0,.4.2.7.4,1.1.3.5.7.8,1.2.9s1,0,1.5-.2c.8-.3,1.4-.8,2-1.3,1.3-1.2,2.2-2.8,2.6-4.5.3-1.1.5-2.2.7-3.3v-.2c-.3-.5-.8-1-1.3-1.4-.9-.6-2-.9-3-.6-.6.2-1.2.5-1.6.9-.5.5-1,1.2-1.3,1.9-.7,1.6-1.2,3.4-1.3,5.3m7.2,3.8l-.1.1c-.5.9-1.3,1.7-2.2,2.3-1,.7-2,1.2-3.2,1.4-1.1.2-2.3.2-3.4-.1-.9-.3-1.8-.9-2.3-1.7-.5-.7-.8-1.6-1-2.5-.2-1.2-.3-2.4-.2-3.5.2-2.2.7-4.4,1.7-6.4.5-1.2,1.2-2.2,2.1-3.2,1-1.1,2.2-1.9,3.6-2.3,1.4-.4,2.8-.5,4.2-.1,1.2.3,2.3,1,3.1,2l.4.5c0-.1.1-.1.1-.2.1-.4.2-.9.3-1.3,0-.3.2-.6.5-.7.3-.1.7-.2,1-.2.6-.1,1.3-.1,1.9,0,.2,0,.3.1.5.1.3,0,.5.3.4.6v.1c-.1.4-.2.9-.3,1.3l-1.2,5.8-1.1,5.8c-.3,1.7-.7,3.3-1,5,0,.3-.2.5-.5.6s-.7.2-1,.2c-.6.1-1.2.1-1.9,0-.2,0-.4-.1-.6-.1-.3,0-.5-.3-.4-.5v-.1c.1-.4.1-.7.2-1.1s.2-1,.3-1.5c.1-.2.1-.3.1-.3"/>
      <path class="cls-1" d="m153.9,12.7h-2.2c-.2,0-.4-.2-.4-.4v-.4c0-.8.1-1.6.4-2.4.1-.2.2-.4.2-.5.2-.3.5-.5.8-.4h2l.1-.7c.2-1.1.4-2.2.6-3.2,0-.3.2-.5.5-.6.2-.1.5-.2.8-.2.6-.1,1.3-.1,1.9-.1.4,0,.8,0,1.2.1.2,0,.3.1.5.2s.3.3.3.6c-.2,1-.4,1.9-.6,2.9-.1.4-.1.7-.2,1.1h4.1c.2,0,.3.1.3.3,0,.1.1.2.1.4,0,1-.2,2-.6,2.8,0,.1-.1.2-.1.2-.2.3-.5.4-.8.4h-3.8c0,.1,0,.2-.1.3-.5,2.7-1.1,5.5-1.6,8.2-.1.5-.2,1-.1,1.5v.3c.1.6.6,1,1.2,1,.6.1,1.3,0,1.9-.2.2-.1.3-.1.5-.2.4-.1.6,0,.6.4s0,.7-.1,1c-.1.6-.2,1.1-.5,1.7v.1c-.2.5-.5.8-1,1s-1.1.3-1.6.4c-.7.1-1.3.1-2,.1-.5,0-1.1-.1-1.6-.3-1.3-.4-2.3-1.4-2.5-2.8-.2-.9-.2-1.8,0-2.6.3-1.7.6-3.4,1-5s.6-3.1.9-4.7l-.1-.3"/>
      <path class="cls-1" d="m142.9,12l.1-.2c.7-1.1,1.6-2.1,2.6-2.8.6-.4,1.3-.7,2-.8s1.5,0,2.2.2c.5.2.5.3.5.8-.1,1.1-.3,2.2-.6,3.2-.1.2-.2.4-.3.6-.1.2-.4.4-.6.3h0l-.8-.3c-.7-.2-1.4-.1-2,.2s-1.1.8-1.5,1.2c-1.2,1.3-2,3-2.3,4.7-.4,1.9-.8,3.8-1.1,5.6-.2.8-.3,1.6-.5,2.4,0,.3-.2.5-.5.6-.2.1-.5.2-.8.2-.6.1-1.3.1-1.9.1-.4,0-.8,0-1.2-.1-.1,0-.3-.1-.4-.1-.2-.1-.4-.3-.3-.5v-.1c0-.2.1-.5.1-.7l1.5-7.4c.4-2.2.9-4.4,1.3-6.7.2-1.1.4-2.1.6-3.2,0-.3.3-.6.6-.7.3-.1.6-.1.9-.2.6-.1,1.3-.1,1.9,0,.2,0,.3.1.5.1s.4.3.4.5h0v.1c-.1.7-.3,1.5-.4,2.2,0,.4,0,.6,0,.8h0"/>
      <path class="cls-1" d="m55.7,16.4h2.4c.9,0,1.7-.1,2.6-.3.5-.1,1-.3,1.5-.6.4-.2.6-.6.8-.9.4-.9,0-2-.9-2.4h-.1l-.3-.2c-.7-.2-1.5-.2-2.3,0-1,.3-1.8.9-2.4,1.7-.6.8-1,1.7-1.3,2.6v.1m-.7,3.2c0,.3-.1.6-.1.9-.1.5-.1,1,0,1.5,0,.6.2,1.1.6,1.5.4.5,1.1.9,1.8,1,.6.1,1.2.1,1.7.1,1.7-.1,3.4-.4,5-1,.2-.1.5-.2.7-.2.3-.1.5.1.5.4,0,1-.2,1.9-.6,2.8-.2.3-.4.6-.8.7-.4.2-.9.3-1.3.5-.9.3-1.9.4-2.9.5-.8.1-1.6.1-2.4.1-1.2,0-2.3-.2-3.5-.5-.5-.2-1-.4-1.5-.7-1.1-.7-1.9-1.8-2.2-3-.2-.7-.3-1.3-.3-2-.1-2.7.4-5.3,1.6-7.8.6-1.3,1.4-2.4,2.3-3.4,1.4-1.4,3.2-2.4,5.1-2.8.9-.2,1.7-.2,2.6-.2.8,0,1.6.1,2.4.3.8.2,1.6.5,2.3,1,1,.7,1.7,1.8,1.8,2.9.3,1.8-.3,3.6-1.7,4.8-.7.6-1.5,1-2.3,1.3-1.1.4-2.3.7-3.5.8-1.3.2-2.7.2-4.1.2h-1.2v.3Z"/>
      <path class="cls-1" d="m40.1,23.1l.1-.1c1.5-2.4,2.8-4.9,3.8-7.5.8-1.9,1.5-3.9,2.1-6,.1-.4.4-.6.7-.7.3-.1.7-.2,1.1-.1h2.1c.3,0,.6.1.9.1.1,0,.2,0,.2.1.2.1.3.2.3.4,0,.3,0,.7-.2,1-.3.8-.5,1.5-.8,2.3-1.4,3.7-3.1,7.3-5.1,10.7-.9,1.4-1.8,2.8-2.8,4.1-.3.4-.6.6-1.1.7-.3.1-.5.1-.8.1-1,.1-2.1.1-3.1,0-.3,0-.7-.1-1-.1-.4,0-.7-.4-.7-.8l-.7-4.3c-.2-1.3-.3-2.7-.5-4l-.6-4.4c-.2-1.2-.3-2.4-.5-3.6,0-.5-.1-1-.1-1.5,0-.3.2-.7.5-.8s.7-.2,1.1-.2h2c.3,0,.5.1.8.1s.5.3.5.6c.1.4.1.8.2,1.2.1.8.2,1.6.3,2.5l.3,2.3c.1.8.2,1.6.3,2.4s.2,1.3.2,2,.2,1.6.3,2.4c0,.3,0,.6.1.9v.1h0"/>
      <path class="cls-1" d="m25.7,28.2c-.6,0-1.2,0-1.7-.1-.1,0-.3-.1-.4-.1-.3-.1-.4-.3-.4-.6h0l.1-.7c.5-2.6,1-5.2,1.5-7.8l1.3-6.5.6-2.9c0-.3.2-.5.5-.6s.6-.2.9-.2c.8-.1,1.7-.1,2.5,0,.3,0,.5.1.8.2.3.1.4.3.4.6-.3,1.5-.6,3.1-.9,4.6-.4,2.1-.8,4.2-1.2,6.3l-1.2,6c-.1.3-.1.6-.2.9,0,.3-.2.5-.5.6s-.5.2-.8.2c-.4,0-.9,0-1.3.1"/>
      <path class="cls-1" d="m30,6c-.5,0-.9-.1-1.4-.2l-.3-.1c-.5-.2-.8-.6-.8-1.1s0-1,.1-1.5c.1-.3.1-.5.2-.8.3-.8,1-1.4,1.9-1.6.9-.2,1.8-.2,2.6,0l.3.1c.6.1,1,.6,1,1.2,0,.9-.1,1.8-.5,2.6-.3.7-1,1.1-1.7,1.2-.4.1-.9.2-1.4.2"/>
    </g>
  </g>
</svg>